<?xml version="1.0" encoding="UTF-8" standalone="no"?>
<svg
   width="66.014"
   height="66.014"
   viewBox="0 0 66.014 66.014"
   version="1.1"
   id="svg5"
   sodipodi:docname="nceeLogo.svg"
   inkscape:version="1.3.2 (091e20e, 2023-11-25, custom)"
   xmlns:inkscape="http://www.inkscape.org/namespaces/inkscape"
   xmlns:sodipodi="http://sodipodi.sourceforge.net/DTD/sodipodi-0.dtd"
   xmlns="http://www.w3.org/2000/svg"
   xmlns:svg="http://www.w3.org/2000/svg">
  <sodipodi:namedview
     id="namedview5"
     pagecolor="#ffffff"
     bordercolor="#000000"
     borderopacity="0.25"
     inkscape:showpageshadow="2"
     inkscape:pageopacity="0.0"
     inkscape:pagecheckerboard="0"
     inkscape:deskcolor="#d1d1d1"
     inkscape:zoom="2.8299511"
     inkscape:cx="149.29587"
     inkscape:cy="89.224158"
     inkscape:window-width="2560"
     inkscape:window-height="1017"
     inkscape:window-x="-8"
     inkscape:window-y="-8"
     inkscape:window-maximized="1"
     inkscape:current-layer="svg5" />
  <defs
     id="defs1">
    <style
       id="style1">.a{fill:rgba(255,255,255,0);}.b{fill:#3b8ede;}</style>
  </defs>
  <g
     id="g5"
     transform="translate(-0.01990466)">
    <path
       class="b"
       d="m 83.312,36.736 a 32.9,32.9 0 0 0 -9.885,-5.918 l -0.659,1.729 A 31.152,31.152 0 0 1 62.607,92.8 v -7.7 a 23.481,23.481 0 0 0 10.08,-2.894 l -0.9,-1.619 a 21.6,21.6 0 0 1 -9.182,2.662 V 64.067 l 10.554,9.221 V 50.741 H 71.31 v 18.47 l -8.7,-7.6 V 40.08 a 21.648,21.648 0 0 1 9.182,2.664 l 0.9,-1.619 A 23.5,23.5 0 0 0 62.612,38.23 v -9.563 h -0.926 a 33.007,33.007 0 1 0 21.631,8.069 z M 51.3,72.595 V 54.188 l 9.457,8.261 v 20.82 a 21.608,21.608 0 0 1 0,-43.2 V 59.991 L 49.446,50.113 V 72.595 Z M 30.518,61.668 A 31.193,31.193 0 0 1 60.755,30.532 v 7.682 a 23.458,23.458 0 0 0 0,46.9 V 92.8 A 31.191,31.191 0 0 1 30.518,61.668 Z"
       transform="translate(-28.667,-28.667)"
       id="path5" />
  </g>
</svg>
